<mxfile host="Electron" modified="2024-09-05T18:04:54.963Z" agent="Mozilla/5.0 (Macintosh; Intel Mac OS X 10_15_7) AppleWebKit/537.36 (KHTML, like Gecko) draw.io/21.6.5 Chrome/114.0.5735.243 Electron/25.3.1 Safari/537.36" etag="H9gETx02F5GZL4Lqm9Ni" version="21.6.5" type="device">
  <diagram name="Page-1" id="Nyk4L6-wBPTgb3dulhPT">
    <mxGraphModel dx="1026" dy="685" grid="1" gridSize="10" guides="1" tooltips="1" connect="1" arrows="1" fold="1" page="1" pageScale="1" pageWidth="1169" pageHeight="827" math="0" shadow="0">
      <root>
        <mxCell id="0" />
        <mxCell id="1" parent="0" />
        <mxCell id="CZXsg4LtJaAlgX--GsCp-5" style="edgeStyle=orthogonalEdgeStyle;rounded=0;orthogonalLoop=1;jettySize=auto;html=1;exitX=0.5;exitY=1;exitDx=0;exitDy=0;entryX=0.5;entryY=0;entryDx=0;entryDy=0;" edge="1" parent="1" source="CZXsg4LtJaAlgX--GsCp-1" target="CZXsg4LtJaAlgX--GsCp-2">
          <mxGeometry relative="1" as="geometry" />
        </mxCell>
        <mxCell id="CZXsg4LtJaAlgX--GsCp-1" value="Image Processing" style="rounded=1;whiteSpace=wrap;html=1;fillColor=#647687;strokeColor=#314354;fontColor=#ffffff;" vertex="1" parent="1">
          <mxGeometry x="80" y="150" width="120" height="60" as="geometry" />
        </mxCell>
        <mxCell id="CZXsg4LtJaAlgX--GsCp-6" style="edgeStyle=orthogonalEdgeStyle;rounded=0;orthogonalLoop=1;jettySize=auto;html=1;exitX=0.5;exitY=1;exitDx=0;exitDy=0;entryX=0.5;entryY=0;entryDx=0;entryDy=0;" edge="1" parent="1" source="CZXsg4LtJaAlgX--GsCp-2" target="CZXsg4LtJaAlgX--GsCp-3">
          <mxGeometry relative="1" as="geometry" />
        </mxCell>
        <mxCell id="CZXsg4LtJaAlgX--GsCp-2" value="Noise Reduction" style="rounded=1;whiteSpace=wrap;html=1;fillColor=#d80073;fontColor=#ffffff;strokeColor=#A50040;" vertex="1" parent="1">
          <mxGeometry x="80" y="250" width="120" height="60" as="geometry" />
        </mxCell>
        <mxCell id="CZXsg4LtJaAlgX--GsCp-7" style="edgeStyle=orthogonalEdgeStyle;rounded=0;orthogonalLoop=1;jettySize=auto;html=1;exitX=0.5;exitY=1;exitDx=0;exitDy=0;entryX=0.5;entryY=0;entryDx=0;entryDy=0;" edge="1" parent="1" source="CZXsg4LtJaAlgX--GsCp-3" target="CZXsg4LtJaAlgX--GsCp-4">
          <mxGeometry relative="1" as="geometry" />
        </mxCell>
        <mxCell id="CZXsg4LtJaAlgX--GsCp-3" value="Edge Detection" style="rounded=1;whiteSpace=wrap;html=1;fillColor=#0050ef;fontColor=#ffffff;strokeColor=#001DBC;" vertex="1" parent="1">
          <mxGeometry x="80" y="354" width="120" height="60" as="geometry" />
        </mxCell>
        <mxCell id="CZXsg4LtJaAlgX--GsCp-4" value="Lane Marking" style="rounded=1;whiteSpace=wrap;html=1;fillColor=#008a00;fontColor=#ffffff;strokeColor=#005700;" vertex="1" parent="1">
          <mxGeometry x="80" y="460" width="120" height="60" as="geometry" />
        </mxCell>
      </root>
    </mxGraphModel>
  </diagram>
</mxfile>
